<svg width="90" height="90" viewBox="0 0 90 90" fill="none" xmlns="http://www.w3.org/2000/svg">
<path d="M22.7925 45C22.7984 39.112 25.14 33.4669 29.3035 29.3035C33.4669 25.14 39.112 22.7984 45 22.7925C48.8959 22.8005 52.7217 23.8292 56.0963 25.7761C59.471 27.7229 62.2766 30.52 64.2337 33.8887L58.6125 37.14L77.4637 26.2575C76.9789 25.3776 76.2781 24.6356 75.4275 24.1012L47.8837 8.20121C46.2937 7.28246 43.6987 7.28246 42.1125 8.20121L14.5687 24.1012C12.9862 25.0162 11.6887 27.2662 11.6887 29.1V60.9C11.6887 61.8187 12.0112 62.8387 12.5362 63.7425L25.77 56.1C23.8142 52.728 22.7869 48.898 22.7925 45Z" fill="black"/>
<path d="M54.615 39.4462C53.6374 37.7613 52.2351 36.3622 50.548 35.3883C48.8609 34.4145 46.9479 33.9 45 33.8962C43.0525 33.9 41.1403 34.4154 39.4547 35.3908C37.7692 36.3661 36.3694 37.7672 35.3957 39.4537C34.422 41.1403 33.9085 43.053 33.9066 45.0004C33.9047 46.9478 34.4145 48.8616 35.385 50.55L45 45L54.615 39.4462Z" fill="black"/>
<path d="M77.4637 26.2575L58.5412 37.1813L54.6187 39.45L54.615 39.4463L45 45L35.3887 50.55C36.3635 52.2369 37.7645 53.6379 39.4514 54.6126C41.1383 55.5874 43.0517 56.1016 45 56.1038C46.949 56.1007 48.8631 55.5861 50.5511 54.6115C52.239 53.6369 53.6416 52.2365 54.6187 50.55L64.23 56.1113C62.2734 59.4805 59.4679 62.278 56.0932 64.2249C52.7184 66.1719 48.8923 67.2002 44.9962 67.2075C41.0983 67.2052 37.2696 66.1777 33.8943 64.2281C30.519 62.2785 27.7158 59.4753 25.7662 56.1L12.5325 63.7425C13.0575 64.65 13.7775 65.4413 14.5687 65.8988L42.1125 81.7988C43.6987 82.7175 46.2937 82.7175 47.8837 81.7988L75.4275 65.8988C76.2187 65.4413 76.9387 64.65 77.4637 63.7425C77.9887 62.8388 78.3112 61.8188 78.3112 60.9V29.1C78.3112 28.1813 77.9887 27.1613 77.4637 26.2575ZM67.2075 46.2338H64.74V48.7013H62.2762V46.2338H59.8087V43.7663H62.2762V41.2988H64.74V43.7663H67.2075V46.2338ZM76.4625 46.2338H73.995V48.7013H71.5275V46.2338H69.0637V43.7663H71.5275V41.2988H73.995V43.7663H76.4625V46.2338Z" fill="black"/>
</svg>
