<svg width="74" height="43" viewBox="0 0 74 43" fill="none" xmlns="http://www.w3.org/2000/svg">
<path d="M74 41.8439C72.923 42.2519 71.7341 42.251 70.6578 41.8414C69.5814 41.4318 68.6919 40.6419 68.1571 39.6207L57.5196 24.8888L55.9779 22.8293L43.6354 39.6392C43.1327 40.6176 42.2915 41.3792 41.2689 41.7815C40.2463 42.1839 39.1124 42.1995 38.0792 41.8254L53.983 20.4579L39.1892 1.15608C40.2529 0.772185 41.4163 0.767096 42.4833 1.14166C43.5503 1.51623 44.4559 2.24758 45.0475 3.21255L56.0735 18.1266L67.1612 3.2743C67.6677 2.31334 68.5091 1.57227 69.5256 1.19198C70.542 0.811691 71.6626 0.818692 72.6742 1.21166L66.933 8.84159L59.1568 18.9788C58.9409 19.1717 58.7681 19.4082 58.6498 19.6726C58.5315 19.9371 58.4703 20.2236 58.4703 20.5134C58.4703 20.8033 58.5315 21.0898 58.6498 21.3543C58.7681 21.6187 58.9409 21.8552 59.1568 22.0481L73.9692 41.847L74 41.8439ZM0.00620365 20.1923L1.3012 13.7851C4.85937 1.11594 19.3634 -4.15493 29.341 3.68807C35.1839 8.28579 36.6424 14.7949 36.3556 22.1315H3.44104C2.90762 35.233 12.3488 43.1439 24.42 39.102C26.3769 38.3966 28.1285 37.2161 29.5179 35.6662C30.9073 34.1164 31.8911 32.2456 32.3812 30.2215C33.0194 28.165 34.0709 27.813 36.001 28.4058C35.6794 30.9143 34.7939 33.3171 33.4112 35.4334C32.0286 37.5497 30.1847 39.3245 28.0183 40.6242C24.4398 42.5845 20.3341 43.3614 16.2881 42.844C12.2422 42.3265 8.46316 40.5412 5.49145 37.7433C2.55313 34.4313 0.777272 30.2477 0.434787 25.8306C0.434787 25.105 0.18812 24.4257 0.0216203 23.7742C0.00661075 22.5813 -0.000583851 21.3884 3.69885e-05 20.1954L0.00620365 20.1923ZM3.48112 19.3092H33.2476C33.0626 9.81116 27.0779 3.0736 19.0951 3.01184C10.2089 2.88833 3.85112 9.47768 3.45954 19.266L3.48112 19.3092Z" fill="black"/>
</svg>
