<svg width="66" height="66" viewBox="0 0 66 66" fill="none" xmlns="http://www.w3.org/2000/svg">
<path d="M43.3125 22.6875C46.0476 22.6875 48.6706 21.601 50.6045 19.667C52.5385 17.7331 53.625 15.11 53.625 12.375C53.625 9.63996 52.5385 7.01693 50.6045 5.08296C48.6706 3.14899 46.0476 2.0625 43.3125 2.0625H22.6875C19.9525 2.0625 17.3294 3.14899 15.3955 5.08296C13.4615 7.01693 12.375 9.63996 12.375 12.375C12.375 15.11 13.4615 17.7331 15.3955 19.667C17.3294 21.601 19.9525 22.6875 22.6875 22.6875C19.9525 22.6875 17.3294 23.774 15.3955 25.708C13.4615 27.6419 12.375 30.265 12.375 33C12.375 35.735 13.4615 38.3581 15.3955 40.292C17.3294 42.226 19.9525 43.3125 22.6875 43.3125C20.6479 43.3125 18.6541 43.9173 16.9582 45.0505C15.2623 46.1836 13.9405 47.7942 13.16 49.6786C12.3795 51.5629 12.1752 53.6364 12.5732 55.6369C12.9711 57.6373 13.9532 59.4748 15.3955 60.917C16.8377 62.3593 18.6752 63.3414 20.6756 63.7393C22.6761 64.1373 24.7496 63.933 26.6339 63.1525C28.5183 62.372 30.1289 61.0502 31.262 59.3543C32.3952 57.6584 33 55.6646 33 53.625V22.6875H43.3125Z" fill="black"/>
<path d="M43.3125 43.3125C49.0079 43.3125 53.625 38.6954 53.625 33C53.625 27.3046 49.0079 22.6875 43.3125 22.6875C37.6171 22.6875 33 27.3046 33 33C33 38.6954 37.6171 43.3125 43.3125 43.3125Z" fill="black"/>
</svg>
