<svg width="73" height="73" viewBox="0 0 73 73" fill="none" xmlns="http://www.w3.org/2000/svg">
<path d="M15.9354 45.8166L21.9305 7.24222C21.9745 6.95655 22.1072 6.69195 22.3099 6.48587C22.5125 6.27979 22.7749 6.14266 23.0598 6.09389C23.3447 6.04511 23.6377 6.08717 23.8974 6.2141C24.1571 6.34103 24.3702 6.54641 24.5068 6.80118L30.9551 18.904L15.9354 45.8166ZM58.5217 55.1758L52.8125 19.6766C52.7695 19.4281 52.6593 19.1962 52.4939 19.0059C52.3285 18.8156 52.1141 18.6743 51.874 18.5972C51.634 18.5201 51.3774 18.5102 51.1321 18.5685C50.8868 18.6269 50.6622 18.7513 50.4826 18.9283L14.4784 55.1758L34.4013 66.4026C35.6514 67.1022 37.1753 67.1022 38.4254 66.4026L58.5217 55.1758ZM42.3309 24.1965L37.7167 15.3665C37.6001 15.1448 37.4251 14.9593 37.2107 14.8298C36.9963 14.7003 36.7505 14.6319 36.5001 14.6319C36.2496 14.6319 36.0039 14.7003 35.7894 14.8298C35.575 14.9593 35.4 15.1448 35.2834 15.3665L15.0229 51.6749L42.3309 24.1965Z" fill="black"/>
</svg>
