<svg width="125" height="125" viewBox="0 0 125 125" fill="none" xmlns="http://www.w3.org/2000/svg">
<path d="M0 0H125V125H0V0ZM114.757 95.1875C113.847 89.4861 110.132 84.6945 99.1181 80.2222C95.2847 78.4236 91.0278 77.1806 89.75 74.2917C89.2778 72.5694 89.2083 71.6389 89.5139 70.6181C90.2986 67.2569 94.2847 66.25 97.4097 67.1806C99.4445 67.8056 101.319 69.3681 102.493 71.875C107.875 68.3542 107.875 68.3542 111.632 66.0139C110.222 63.8333 109.521 62.8819 108.583 61.9444C105.299 58.2778 100.924 56.4028 93.8195 56.5625L90.1528 57.0278C86.632 57.8889 83.2708 59.7708 81.2431 62.2639C75.3056 68.9861 77.0208 80.7014 84.2083 85.5556C91.3125 90.8681 101.715 92.0347 103.042 97.0347C104.292 103.132 98.5139 105.083 92.7986 104.382C88.5833 103.438 86.2361 101.333 83.6597 97.4236L74.132 102.896C75.2222 105.389 76.4722 106.486 78.3472 108.674C87.4097 117.813 110.069 117.347 114.132 103.438C114.278 102.972 115.382 99.7708 114.521 94.8472L114.757 95.1875ZM67.9722 57.4514H56.2639C56.2639 67.5417 56.2153 77.5764 56.2153 87.6875C56.2153 94.1042 56.5417 99.9931 55.4931 101.806C53.7778 105.396 49.3403 104.938 47.3333 104.299C45.2708 103.285 44.2222 101.875 43.0069 99.8472C42.6806 99.3056 42.4375 98.8333 42.3472 98.8333L32.8472 104.694C34.4375 107.979 36.7569 110.799 39.75 112.59C44.2014 115.25 50.1806 116.111 56.4444 114.708C60.5278 113.528 64.0486 111.104 65.875 107.354C68.5417 102.514 67.9722 96.5694 67.9514 89.9306C68.0069 79.2292 67.9514 68.5208 67.9514 57.7431L67.9722 57.4514Z" fill="black"/>
</svg>
