<svg width="56" height="56" viewBox="0 0 56 56" fill="none" xmlns="http://www.w3.org/2000/svg">
<path d="M55.1706 12.67C55.1881 12.7435 55.1986 12.8258 55.1986 12.8975V24.92C55.199 25.0735 55.1587 25.2243 55.0818 25.3571C55.005 25.4899 54.8943 25.5999 54.7611 25.676L44.6706 31.4913V43.0028C44.671 43.1562 44.6307 43.307 44.5538 43.4398C44.477 43.5726 44.3663 43.6827 44.2331 43.7588L23.1701 55.881C23.1209 55.9083 23.0686 55.9295 23.0143 55.944L22.9601 55.972C22.8136 56.0088 22.6603 56.0088 22.5138 55.972C22.4917 55.9654 22.4705 55.956 22.4508 55.944C22.4002 55.9284 22.3515 55.9072 22.3056 55.881L1.2513 43.7588C1.11715 43.683 1.0053 43.5732 0.926976 43.4405C0.848649 43.3078 0.806602 43.1569 0.805054 43.0028V6.93702C0.805054 6.86352 0.822554 6.78127 0.841804 6.70952C0.850554 6.68152 0.859304 6.66402 0.869804 6.63602L0.924054 6.49952C0.932804 6.47152 0.960804 6.45402 0.978304 6.42602L1.06055 6.31577C1.09001 6.29758 1.11757 6.27647 1.1428 6.25277C1.17955 6.22477 1.2058 6.19852 1.24255 6.17927L11.7706 0.117269C11.9037 0.0408126 12.0545 0.000579834 12.2081 0.000579834C12.3616 0.000579834 12.5124 0.0408126 12.6456 0.117269L23.1823 6.17927C23.2191 6.19677 23.2453 6.22477 23.2733 6.25277L23.3643 6.31577C23.3912 6.35086 23.4158 6.38769 23.4378 6.42602C23.4553 6.44352 23.4833 6.47152 23.5008 6.49952L23.5551 6.63602C23.5638 6.66402 23.5831 6.68152 23.5831 6.70952C23.6095 6.78235 23.622 6.85955 23.6198 6.93702V29.4595L32.3873 24.4108V12.8993C32.3906 12.7959 32.4125 12.6939 32.4521 12.5983L32.5063 12.4618C32.5238 12.425 32.5518 12.4075 32.5693 12.3795C32.5973 12.3428 32.6148 12.306 32.6428 12.2798C32.6708 12.2535 32.7058 12.2343 32.7338 12.2168C32.7601 12.1876 32.7908 12.1628 32.8248 12.1433L43.3616 6.08127C43.4932 6.00049 43.6446 5.95774 43.7991 5.95774C43.9535 5.95774 44.1049 6.00049 44.2366 6.08127L54.7646 12.1433C54.8013 12.1608 54.8276 12.1888 54.8643 12.2168C54.8923 12.2343 54.9186 12.2535 54.9466 12.2798C54.9746 12.306 55.0008 12.3428 55.0288 12.3795C55.0463 12.4075 55.0743 12.425 55.0831 12.4618C55.1111 12.5073 55.1198 12.5528 55.1373 12.5983C55.1548 12.6158 55.1653 12.6438 55.1741 12.6718L55.1706 12.67ZM53.4381 24.409V14.42L49.7561 16.534L44.6706 19.4688V29.4578L53.4381 24.409ZM42.9206 42.4918V32.4923L37.9068 35.3448L23.6146 43.512V53.6025L42.9206 42.4918ZM2.55155 8.45777V42.4918L21.8558 53.6025V43.512L11.7653 37.7965C11.7286 37.779 11.7023 37.751 11.6743 37.723C11.6463 37.7055 11.6113 37.6863 11.5921 37.66H11.5833C11.5553 37.632 11.5378 37.597 11.5098 37.569C11.4923 37.541 11.4643 37.5148 11.4468 37.478C11.4264 37.4436 11.4111 37.4065 11.4013 37.3678C11.3838 37.331 11.3646 37.3048 11.3558 37.268C11.3471 37.2313 11.3383 37.1858 11.3383 37.1403C11.3296 37.1035 11.3208 37.0773 11.3208 37.0405V13.5065L6.2353 10.5718L2.55155 8.45777ZM12.2046 1.88652L3.43705 6.93527L12.2046 11.984L20.9721 6.93527L12.2046 1.88652ZM16.7703 33.4058L21.8558 30.471V8.45952L18.1738 10.5735L13.0796 13.5083V35.5198L16.7703 33.4058ZM43.7956 7.84702L35.0176 12.8958L43.7956 17.9445L52.5631 12.8958L43.7956 7.84702ZM42.9206 19.4688L34.1426 14.42V24.409L39.2281 27.3438L42.9188 29.4578L42.9206 19.4688ZM22.7326 41.9913L42.0281 30.9803L33.2693 25.9315L13.9826 37.0335L22.7326 41.9913Z" fill="black"/>
</svg>
