<svg width="69" height="69" viewBox="0 0 69 69" fill="none" xmlns="http://www.w3.org/2000/svg">
<path d="M49.391 27.3693C45.7641 11.3764 37.1952 6.13235 36.2745 4.12273C35.2632 2.69745 34.1743 0.00213623 34.1743 0.00213623C34.1635 0.0581987 34.1635 0.0926987 34.1527 0.148761V0.183261C34.1527 0.228542 34.142 0.250105 34.142 0.295386V0.340667H34.1312V0.485136H34.1204C34.1204 0.506699 34.1204 0.541199 34.1096 0.55198V0.618824C34.1096 0.640386 34.1096 0.664105 34.0988 0.674886V0.730949C34.0988 0.765449 34.0988 0.797793 34.0881 0.821511V0.832292C34.0862 0.8818 34.0789 0.930958 34.0665 0.978917V1.00048C34.0557 1.01126 34.0557 1.02204 34.0557 1.03498V1.08026H34.0449V1.1471H34.0341V1.19239H34.0126V1.25923H34.0018V1.31529H33.991V1.36057H33.9802V1.40586H33.9695V1.45114H33.9587V1.49642H33.9479V1.53092H33.9371V1.5762H33.9263V1.62148H33.9156C33.9048 1.62148 33.9048 1.63226 33.9048 1.63226V1.65382L33.894 1.67539C33.894 1.69695 33.8832 1.72067 33.8724 1.74223C33.8616 1.75301 33.8616 1.75301 33.8616 1.76379V1.78535H33.8509V1.80692H33.8293V1.86298H33.8077V1.89748H33.797V1.90826H33.7862V1.92982H33.7754V1.96432H33.7646V1.98589H33.7431V2.02039H33.7323V2.04195H33.7215V2.06351H33.7107V2.09801H33.6999V2.11957H33.6891V2.13035H33.6784V2.15192H33.6568V2.18642H33.646V2.1972H33.6352V2.21876H33.6245V2.25326H33.6137V2.26404H33.6029V2.2856H33.5921V2.29639H33.5813V2.33089H33.5598V2.34167H33.549V2.36323H33.5382V2.37401H33.5274V2.39557H33.5166V2.41714C33.5059 2.41714 33.5059 2.42792 33.5059 2.42792V2.4387H33.4951L33.4606 2.49476C33.4606 2.49476 33.439 2.51632 33.439 2.52926C33.4282 2.52926 33.4282 2.54004 33.4282 2.54004V2.55082H33.4175V2.5616H33.4067V2.58317H33.3851V2.59395H33.3743V2.60473H33.3636V2.63707H33.3528V2.64786H33.342V2.65864H33.3312V2.6802H33.3204V2.65864H33.2989V2.66942H33.2881V2.69098H33.2773V2.71254H33.2665V2.72332H33.2557V2.7341H33.245V2.74489H33.2342V2.76645H33.2126V2.77723H33.2018V2.79879H33.1911V2.80957H33.1803V2.82035H33.1695V2.85485H33.1587V2.86564H33.1479V2.87642H33.1371V2.8872H33.1264V2.89798H33.1048V2.91954H33.094V2.93032H33.0832V2.9411H33.0725V2.96267H33.0617V2.97345H33.0401V2.98423H33.0293V2.99501H33.0186V3.01657H33.0078V3.03814H32.997V3.04892H32.9862V3.0597H32.9646V3.07048H32.9539V3.08126H32.9431V3.10282H32.9323V3.1136H32.9215V3.13517H32.9107V3.14595H32.9V3.15673H32.8892V3.16751H32.8784V3.17829H32.8568V3.18907C32.8461 3.18907 32.8461 3.19985 32.8461 3.19985L32.8353 3.21064L32.8245 3.22142V3.24298H32.8137V3.25376H32.8029V3.26454H32.7921V3.27532H32.7814L32.7598 3.29689V3.30767C32.7382 3.31845 32.7382 3.32923 32.7145 3.35295C32.7145 3.35295 32.693 3.37451 32.68 3.37451C32.6455 3.39607 32.6024 3.44135 32.5679 3.47585C32.5463 3.48664 32.5226 3.51035 32.5011 3.52114C32.4558 3.56642 32.4105 3.59876 32.3652 3.63326C32.2984 3.7001 32.2294 3.74539 32.1517 3.81223H32.141L31.6127 4.27367H31.6019C31.1189 4.7006 30.5453 5.25045 29.8941 5.90164L29.8381 5.9577C25.9288 10.0007 19.7641 18.4338 19.1237 32.0569C19.0568 33.1804 19.0676 34.28 19.1345 35.3474V35.3689C19.4493 40.738 21.1333 45.32 23.2443 49.0482C24.0744 50.5317 24.9844 51.8794 25.9051 53.0912C29.0726 57.27 32.307 59.7518 33.1264 60.3577C34.3964 63.2881 34.2821 68.3423 34.2821 68.3423L36.1343 68.959C36.1343 68.959 35.7527 64.0729 36.281 61.7032C36.4491 60.9723 36.8308 60.3448 37.2815 59.8057C37.5963 59.5923 38.4954 58.9411 39.5736 57.9535C39.6296 57.8975 39.6641 57.8522 39.7094 57.7961C44.078 53.7186 52.2437 43.6791 49.447 27.3283L49.391 27.3693Z" fill="black"/>
</svg>
