<svg width="62" height="62" viewBox="0 0 62 62" fill="none" xmlns="http://www.w3.org/2000/svg">
<g clip-path="url(#clip0)">
<path d="M42.3828 14.663C42.0806 14.663 41.8791 14.7037 41.6756 14.7541V14.7851H41.7066C41.8481 15.0466 42.0806 15.2501 42.2608 15.4922C42.4022 15.7654 42.5223 16.0464 42.6541 16.3196L42.6948 16.2789C42.937 16.1064 43.059 15.8352 43.059 15.4206C42.9583 15.2985 42.937 15.1687 42.8478 15.0563C42.7471 14.8839 42.5243 14.7947 42.3828 14.663ZM14.9052 48.7494H12.5143C12.4419 44.9439 12.2099 41.143 11.8188 37.3569H11.7994L8.15689 48.7494H6.32983L2.71639 37.3569H2.68539C2.40458 41.1486 2.23659 44.9478 2.18164 48.7494H0.00195312C0.119978 43.9719 0.473679 39.2031 1.06177 34.4604H4.02808L7.47877 44.9558H7.49814L10.9798 34.4604H13.8047C14.4305 39.6684 14.8045 44.4307 14.9149 48.7494H14.9052ZM25.2786 38.2056C24.3098 43.493 23.0175 47.3389 21.4346 49.7298C20.183 51.5762 18.8209 52.5043 17.3368 52.5043C16.9435 52.5043 16.4591 52.3822 15.874 52.1401V50.8691C16.1665 50.9097 16.4998 50.9388 16.8737 50.9388C17.5693 50.9388 18.1253 50.7373 18.5496 50.3634C19.0534 49.8984 19.3072 49.3752 19.3072 48.7998C19.3072 48.3968 19.1154 47.5889 18.7124 46.3586L16.0987 38.2056H18.4508L20.3283 44.3009C20.7526 45.694 20.9347 46.6531 20.8533 47.2072C21.8918 44.4617 22.6087 41.4547 23.0136 38.2056H25.2786ZM57.1253 48.7494H50.3246V34.4604H52.6148V46.9941H57.1253V48.7494ZM48.548 49.0943L45.9246 47.802C46.1571 47.6102 46.378 47.399 46.5814 47.1568C47.7013 45.8548 48.2573 43.9076 48.2573 41.3443C48.2573 36.611 46.4012 34.2511 42.687 34.2511C40.8696 34.2511 39.4475 34.8459 38.4284 36.0472C37.3182 37.3589 36.7525 39.2964 36.7525 41.85C36.7525 44.3629 37.2465 46.1997 38.2366 47.3796C39.1453 48.4297 40.5073 48.9645 42.3344 48.9645C43.0106 48.9645 43.6364 48.8831 44.2021 48.7126L47.6238 50.7102L48.5615 49.0962L48.548 49.0943ZM40.0423 45.8839C39.4572 44.9558 39.1743 43.462 39.1743 41.4024C39.1743 37.8006 40.2651 36.0046 42.4545 36.0046C43.5957 36.0046 44.4424 36.4386 44.9771 37.2969C45.5526 38.2346 45.8451 39.7091 45.8451 41.7473C45.8451 45.3704 44.7446 47.1975 42.565 47.1975C41.4141 47.1975 40.5771 46.7635 40.0326 45.9052L40.0423 45.8839ZM35.7624 44.795C35.7624 46.0059 35.3187 47.0057 34.4197 47.771C33.5323 48.5479 32.3505 48.9412 30.847 48.9412C29.4442 48.9412 28.1015 48.4976 26.7801 47.6082L27.3963 46.3779C28.5258 46.9437 29.545 47.2266 30.475 47.2266C31.3333 47.2266 32.0095 47.0347 32.4938 46.6608C32.9782 46.2772 33.2708 45.7424 33.2708 45.0662C33.2708 44.2176 32.676 43.4911 31.5948 42.8866C30.5951 42.3324 28.5878 41.1912 28.5878 41.1912C27.497 40.3949 26.9623 39.5463 26.9623 38.1436C26.9623 36.983 27.3653 36.0549 28.1732 35.3477C28.9908 34.6212 30.0293 34.2686 31.3216 34.2686C32.6074 34.2574 33.8677 34.6261 34.9448 35.3284L34.3906 36.5587C33.5249 36.1775 32.5911 35.9751 31.6452 35.9639C30.909 35.9639 30.3432 36.146 29.9499 36.4986C29.5566 36.8512 29.3144 37.2949 29.3144 37.851C29.3144 38.6996 29.9208 39.4262 31.0291 40.0501C32.0482 40.6042 34.0961 41.7764 34.0961 41.7764C35.216 42.563 35.7721 43.4116 35.7721 44.7931L35.7624 44.795ZM59.9928 29.6689C58.6094 29.6379 57.5399 29.7794 56.6428 30.163C56.391 30.2637 55.9763 30.2637 55.9356 30.5873C56.0771 30.7287 56.0965 30.9516 56.2185 31.1414C56.4297 31.4844 56.7843 31.9494 57.1175 32.1916C57.4818 32.4744 57.8441 32.7573 58.218 32.9995C58.8942 33.4141 59.6518 33.6563 60.3163 34.069C60.6903 34.3112 61.0739 34.6231 61.4459 34.8769C61.6377 35.0087 61.7578 35.2412 62 35.3206V35.2702C61.878 35.1191 61.8489 34.8963 61.7268 34.7161C61.5544 34.5437 61.3839 34.3926 61.2115 34.2221C60.7062 33.5512 60.1003 32.9624 59.4154 32.4764C58.8613 32.1024 57.6503 31.5774 57.4275 30.9419L57.3965 30.9012C57.7705 30.8702 58.2141 30.7287 58.5765 30.628C59.1616 30.4769 59.706 30.5059 60.3125 30.3548C60.5906 30.2826 60.8666 30.2018 61.1398 30.1126V29.9615C60.8278 29.6496 60.5953 29.2252 60.2718 28.9327C59.3802 28.1525 58.4285 27.4438 57.4256 26.8131C56.8811 26.4604 56.1953 26.2376 55.6198 25.9451C55.4183 25.8443 55.0657 25.7939 54.9533 25.6215C54.6414 25.2379 54.4593 24.7438 54.2365 24.2885C53.7296 23.3035 53.2585 22.3005 52.824 21.2815C52.5121 20.6053 52.33 19.9388 51.9463 19.313C50.1696 16.3757 48.2321 14.601 45.2658 12.8553C44.6303 12.4911 43.8631 12.3399 43.0551 12.1481C42.6211 12.1287 42.1968 12.0977 41.7628 12.0784C41.48 11.9563 41.2087 11.6347 40.9665 11.4719C39.9784 10.8461 37.4345 9.50343 36.7176 11.2801C36.2526 12.4097 37.4035 13.5102 37.8084 14.0759C38.101 14.4789 38.4749 14.9246 38.6861 15.3682C38.8081 15.6705 38.8372 15.9844 38.9593 16.2963C39.2325 17.0539 39.494 17.9006 39.8583 18.6077C40.0501 18.972 40.2516 19.3537 40.4938 19.6772C40.6352 19.8691 40.8774 19.9504 40.9278 20.2624C40.6856 20.615 40.6662 21.1304 40.5345 21.5547C39.9086 23.5116 40.1508 25.9237 41.0285 27.3672C41.3114 27.8012 41.9663 28.7506 42.8459 28.3863C43.6228 28.0744 43.4523 27.094 43.6732 26.226C43.7236 26.0148 43.6926 25.8831 43.7953 25.7416V25.7823C44.0471 26.2667 44.2893 26.7317 44.5121 27.2161C45.0372 28.0647 45.975 28.9424 46.7519 29.5275C47.1665 29.8394 47.4881 30.3761 48.0035 30.566V30.5156H47.9628C47.8524 30.3645 47.711 30.2928 47.5695 30.1727C47.2423 29.8486 46.9386 29.5015 46.6608 29.1342C45.944 28.1654 45.2988 27.0959 44.733 25.9954C44.4605 25.4517 44.2116 24.8964 43.9871 24.3311C43.8863 24.1296 43.8863 23.8157 43.7139 23.715C43.4523 24.0889 43.0687 24.4106 42.8866 24.8852C42.5533 25.6215 42.5223 26.5399 42.3925 27.4892C42.3325 27.5086 42.3615 27.4892 42.3325 27.5299C41.7783 27.3885 41.5865 26.8227 41.3831 26.3384C40.858 25.1081 40.7766 23.1396 41.2223 21.7271C41.3443 21.3629 41.8578 20.2236 41.6563 19.8807C41.5458 19.5474 41.2029 19.3556 41.0208 19.0941C40.7883 18.7705 40.5558 18.3578 40.395 17.9936C39.9803 17.0248 39.7788 15.9553 39.3255 14.9866C39.124 14.5429 38.7597 14.0779 38.4671 13.6652C38.1339 13.2002 37.7716 12.8689 37.5178 12.3225C37.4267 12.1307 37.3066 11.8187 37.448 11.6153C37.479 11.4739 37.5488 11.4235 37.6902 11.3828C37.913 11.191 38.5582 11.4332 38.781 11.5436C39.4165 11.7955 39.9513 12.0377 40.486 12.4019C40.7282 12.5744 40.9898 12.896 41.3036 12.9871H41.6679C42.222 13.1091 42.8381 13.0181 43.3535 13.1789C44.2719 13.4714 45.0992 13.8957 45.8451 14.3588C48.1263 15.8232 49.9814 17.8627 51.2236 20.2721C51.4348 20.6654 51.5259 21.0296 51.7177 21.4423C52.0703 22.3006 52.5256 23.157 52.888 23.9746C53.2503 24.7922 53.5951 25.6196 54.1183 26.2957C54.3798 26.66 55.4106 26.8499 55.8833 27.032C56.2263 27.1928 56.761 27.3342 57.0633 27.5164C57.6581 27.8806 58.2432 28.2933 58.7993 28.6963C59.0821 28.8881 59.9405 29.3221 59.9908 29.6651L59.9928 29.6689Z" fill="black"/>
</g>
<defs>
<clipPath id="clip0">
<rect width="62" height="62" fill="white"/>
</clipPath>
</defs>
</svg>
