<svg width="80" height="94" viewBox="0 0 80 94" fill="none" xmlns="http://www.w3.org/2000/svg">
<path d="M76.1999 20.4326L43.8187 1.0118C42.6556 0.348713 41.3399 0 40.0011 0C38.6622 0 37.3465 0.348713 36.1833 1.0118L3.8001 20.4305C2.6331 21.1456 1.67026 22.1497 1.0046 23.3456C0.338945 24.5415 -0.00702791 25.8889 0.000108197 27.2576V66.0429C-0.00689314 67.4124 0.339083 68.7606 1.00468 69.9575C1.67027 71.1544 2.63302 72.1596 3.8001 72.8762L12.2917 77.947L12.3397 77.9741C16.6272 80.1678 18.2688 80.1678 20.1709 80.1678C26.8667 80.1678 31.0271 75.8345 31.0271 68.8575V31.2513C31.031 30.7818 30.8485 30.3299 30.5196 29.9948C30.1908 29.6597 29.7424 29.4688 29.273 29.4638H24.6105C24.141 29.4688 23.6926 29.6597 23.3638 29.9948C23.0349 30.3299 22.8524 30.7818 22.8563 31.2513V68.8575C22.8733 69.3958 22.7508 69.9295 22.5007 70.4065C22.2507 70.8836 21.8816 71.288 21.4292 71.5804C20.2001 72.3304 18.4146 72.172 16.4001 71.1325L8.26259 66.2346C8.23144 66.2133 8.20601 66.1847 8.18857 66.1513C8.17112 66.1178 8.1622 66.0806 8.16259 66.0429V27.8055C8.16393 27.7615 8.17579 27.7185 8.19718 27.6801C8.21856 27.6417 8.24885 27.6089 8.2855 27.5846L39.9188 8.2097C39.9424 8.19796 39.9684 8.19184 39.9948 8.19184C40.0212 8.19184 40.0472 8.19796 40.0708 8.2097L71.7228 27.5846C71.7589 27.6109 71.788 27.6454 71.808 27.6853C71.8279 27.7252 71.838 27.7692 71.8374 27.8138V66.0429C71.8382 66.0824 71.8302 66.1216 71.814 66.1576C71.7978 66.1936 71.7738 66.2256 71.7437 66.2512L40.0646 85.1366C40.0106 85.1553 39.9519 85.1553 39.8979 85.1366L31.8084 80.3324C31.5682 80.1755 31.2908 80.0849 31.0043 80.0699C30.7177 80.0549 30.4324 80.116 30.1771 80.247L30.1063 80.2887C27.873 81.6116 27.273 81.9553 25.2021 82.7095C24.8646 82.8324 24.0709 83.1262 24.0021 83.9116C23.9334 84.697 24.6875 85.2553 25.3584 85.6449L36.1709 92.2845C37.3229 92.9746 38.6404 93.3396 39.9833 93.3407H40.1042C41.4135 93.3202 42.6945 92.9559 43.8187 92.2845L76.1999 72.8824C77.3664 72.1636 78.3285 71.1571 78.9939 69.9594C79.6594 68.7617 80.0058 67.413 79.9999 66.0429V27.2576C80.0065 25.8893 79.6603 24.5424 78.9946 23.3469C78.329 22.1514 77.3665 21.1477 76.1999 20.4326Z" fill="black"/>
<path d="M50.8083 59.595C43.0396 59.595 41.3834 57.4242 40.8917 53.92C40.8363 53.5028 40.633 53.1193 40.3187 52.8394C40.0044 52.5596 39.6 52.4018 39.1792 52.395H35.0542C34.5893 52.4049 34.1472 52.5985 33.8247 52.9335C33.5022 53.2685 33.3256 53.7176 33.3334 54.1825C33.3334 57.22 34.4 67.1346 50.8167 67.1346C55.8958 67.1346 60.1208 65.9471 63.0312 63.6992C65.9416 61.4512 67.5 58.1804 67.5 54.2825C67.5 46.4596 62.3958 44.3179 52.3438 42.918C42.125 41.4971 42.125 40.7742 42.125 39.1909C42.125 38.0513 42.125 35.3826 49.5125 35.3826C54.7687 35.3826 57.5833 36.0471 58.4833 39.5492C58.563 39.9375 58.7729 40.2869 59.0783 40.5396C59.3837 40.7923 59.7662 40.9331 60.1625 40.9388H64.3021C64.546 40.9364 64.7867 40.882 65.008 40.7792C65.2293 40.6765 65.4261 40.5278 65.5854 40.343C65.9037 39.9714 66.0624 39.4892 66.0271 39.0013C65.4916 31.5951 60.0771 27.8388 49.5188 27.8388C39.9229 27.8388 34.1959 32.1617 34.1959 39.4013C34.1959 47.3388 40.1313 49.5825 49.0479 50.5117C59.4646 51.5888 59.4646 53.1596 59.4646 54.5471C59.4708 56.7096 58.5729 59.595 50.8083 59.595Z" fill="black"/>
</svg>
