<svg width="63" height="63" viewBox="0 0 63 63" fill="none" xmlns="http://www.w3.org/2000/svg">
<path d="M18.4058 26.7927H15.9233L14.5707 33.7443H16.7757C18.2306 33.7443 19.3174 33.4687 20.036 32.9155C20.7428 32.3721 21.2251 31.4488 21.4712 30.1671C21.7153 28.9367 21.6031 28.0645 21.1542 27.5526C20.6916 27.0506 19.7781 26.7947 18.4058 26.7947V26.7927ZM31.5 14.931C14.0982 14.931 0 22.3551 0 31.5C0 40.6448 14.0982 48.069 31.5 48.069C48.9018 48.069 63 40.6448 63 31.5C63 22.3551 48.9018 14.931 31.5 14.931ZM22.9379 34.4944C22.2564 35.1495 21.4361 35.6427 20.538 35.9375C19.656 36.2151 18.5299 36.3687 17.1655 36.3687H14.0569L13.2064 40.7787H9.58584L12.8166 24.1782H19.7682C21.861 24.1782 23.3888 24.7216 24.3515 25.8182C25.3063 26.9148 25.6036 28.4543 25.2118 30.4231C25.0652 31.2027 24.7961 31.9542 24.4145 32.6497C24.0218 33.3386 23.5228 33.9612 22.9359 34.4944H22.9379ZM33.5101 36.3687L34.9355 29.0193C35.0989 28.1866 35.0378 27.6156 34.7484 27.3046C34.4728 27.0073 33.8664 26.8537 32.9451 26.8537H30.0845L28.2397 36.3687H24.6409L27.8696 19.7583H31.4587L30.5983 24.1782H33.7975C35.8194 24.1782 37.2015 24.5267 37.9614 25.2236C38.7312 25.9323 38.9557 27.0683 38.6603 28.6394L37.1503 36.3707L33.5101 36.3687ZM53.4417 30.4231C53.2996 31.2039 53.0302 31.9561 52.6444 32.6497C52.2554 33.3378 51.7604 33.9604 51.1777 34.4944C50.4899 35.1464 49.6673 35.639 48.7679 35.9375C47.8859 36.2151 46.7578 36.3687 45.3954 36.3687H42.2986L41.4383 40.7787H37.8177L41.0484 24.1782H48.0001C50.0929 24.1782 51.6206 24.7216 52.5833 25.83C53.5382 26.9167 53.8355 28.4543 53.4437 30.4231H53.4417ZM46.6357 26.7927H44.163L42.8105 33.7443H45.0056C46.4704 33.7443 47.5571 33.4687 48.2659 32.9155C48.9825 32.3721 49.4648 31.4488 49.7129 30.1671C49.957 28.9367 49.8448 28.0645 49.3822 27.5526C48.9333 27.0506 48.0099 26.7947 46.6357 26.7947V26.7927Z" fill="black"/>
</svg>
