<svg width="100" height="88" viewBox="0 0 100 88" fill="#000" xmlns="http://www.w3.org/2000/svg">
<path d="M81.6797 28.4542C80.625 28.1014 79.5703 27.7683 78.5156 27.4547C78.6914 26.7296 78.8477 26.0044 79.0039 25.2793C81.4062 13.5987 79.8242 4.21117 74.4922 1.11465C69.3555 -1.84469 60.9766 1.23224 52.5 8.64038C51.6602 9.36552 50.8398 10.1298 50.0586 10.8942C49.5312 10.3846 48.9844 9.87507 48.4375 9.38511C39.5508 1.46742 30.6445 -1.86428 25.3125 1.25184C20.1953 4.23077 18.6719 13.0696 20.8203 24.123C21.0352 25.2205 21.2695 26.2984 21.543 27.3959C20.293 27.7487 19.0625 28.1406 17.9102 28.5522C7.48047 32.1779 0 37.9006 0 43.8192C0 49.9339 7.96875 56.0682 18.8086 59.7918C19.6875 60.0858 20.5664 60.3798 21.4648 60.6346C21.1719 61.8104 20.918 62.9667 20.6836 64.1622C18.6328 75.0393 20.2344 83.6625 25.3516 86.6218C30.625 89.6792 39.4922 86.5434 48.125 78.9589C48.8086 78.3514 49.4922 77.7242 50.1758 77.0579C51.0352 77.9006 51.9336 78.7041 52.832 79.4881C61.1914 86.7002 69.4531 89.6204 74.5508 86.661C79.8242 83.6037 81.543 74.3337 79.3164 63.0451C79.1406 62.1828 78.9453 61.3009 78.7305 60.3994C79.3555 60.223 79.9609 60.027 80.5664 59.831C91.8359 56.0878 100 50.0319 100 43.8192C100 37.881 92.3047 32.1191 81.6797 28.4542ZM55.2539 11.8153C62.5195 5.46546 69.2969 2.97648 72.3828 4.75993C75.6836 6.66096 76.9531 14.3435 74.8828 24.4366C74.7461 25.1029 74.6094 25.7497 74.4336 26.3964C70.0977 25.4165 65.7031 24.711 61.2891 24.319C58.75 20.6737 55.9766 17.1852 52.9688 13.9123C53.7305 13.1872 54.4727 12.5012 55.2539 11.8153ZM32.6562 53.9907C33.6523 55.6958 34.668 57.4008 35.7422 59.0667C32.6953 58.7335 29.668 58.2436 26.6797 57.5968C27.5391 54.7747 28.6133 51.8545 29.8633 48.8756C30.7617 50.6002 31.6797 52.3053 32.6562 53.9907ZM26.7383 30.414C29.5508 29.7869 32.5391 29.2773 35.6445 28.8854C34.6094 30.512 33.5938 32.1779 32.6367 33.8633C31.6797 35.5292 30.7422 37.2342 29.8633 38.9589C28.6328 36.0387 27.5977 33.1774 26.7383 30.414ZM32.0898 43.9172C33.3789 41.2127 34.7852 38.5669 36.2695 35.9603C37.7539 33.3538 39.3555 30.8256 41.0352 28.3366C43.9648 28.121 46.9531 28.0035 50 28.0035C53.0469 28.0035 56.0547 28.121 58.9648 28.3366C60.625 30.806 62.207 33.3342 63.7109 35.9212C65.2148 38.5081 66.6211 41.1539 67.9492 43.8388C66.6406 46.5434 65.2344 49.2088 63.7305 51.8349C62.2461 54.4415 60.6641 56.9697 59.0039 59.4783C56.0938 59.6938 53.0664 59.7918 50 59.7918C46.9336 59.7918 43.9648 59.6938 41.0938 59.5175C39.3945 57.0285 37.793 54.4807 36.2891 51.8741C34.7852 49.2676 33.3984 46.6218 32.0898 43.9172ZM67.3633 53.9515C68.3594 52.2269 69.2969 50.4827 70.2148 48.7188C71.4648 51.5606 72.5586 54.4415 73.5156 57.4008C70.4883 58.0868 67.4219 58.6159 64.3359 58.9687C65.3906 57.3224 66.3867 55.637 67.3633 53.9515ZM70.1758 38.9589C69.2578 37.2342 68.3203 35.5096 67.3438 33.8241C66.3867 32.1583 65.3906 30.512 64.3555 28.8854C67.5 29.2773 70.5078 29.8065 73.3203 30.4532C72.4219 33.3538 71.3672 36.1759 70.1758 38.9589ZM50.0391 16.9108C52.0898 19.145 54.0234 21.4968 55.8203 23.927C51.9531 23.7506 48.0664 23.7506 44.1992 23.927C46.1133 21.3988 48.0859 19.0471 50.0391 16.9108ZM27.3828 4.89711C30.6641 2.97648 37.9492 5.72024 45.625 12.5404C46.1133 12.9716 46.6016 13.442 47.1094 13.9123C44.082 17.1852 41.2891 20.6737 38.7305 24.319C34.3164 24.711 29.9414 25.3969 25.6055 26.3572C25.3516 25.3577 25.1367 24.3386 24.9219 23.3195C23.0859 13.8339 24.2969 6.68055 27.3828 4.89711ZM22.5977 56.5581C21.7773 56.3229 20.9766 56.0682 20.1758 55.7938C16.0156 54.4807 11.2891 52.4033 7.87109 49.6791C5.89844 48.3072 4.57031 46.1906 4.19922 43.8192C4.19922 40.2328 10.3711 35.6468 19.2773 32.5307C20.3906 32.1387 21.5234 31.7859 22.6562 31.4527C23.9844 35.7056 25.5859 39.88 27.4414 43.9172C25.5664 48.0133 23.9453 52.2465 22.5977 56.5581ZM45.3711 75.7644C42.1484 78.7237 38.418 81.0755 34.3555 82.6826C32.1875 83.7213 29.6875 83.8193 27.4609 82.9374C24.3555 81.1343 23.0664 74.2161 24.8242 64.907C25.0391 63.8095 25.2734 62.712 25.5469 61.6341C29.9219 62.5748 34.3359 63.2215 38.8086 63.5547C41.3867 67.2196 44.2188 70.7277 47.2461 74.0202C46.6211 74.6277 45.9961 75.2157 45.3711 75.7644ZM50.1562 71.002C48.1641 68.8462 46.1719 66.4552 44.2383 63.8879C46.1133 63.9663 48.0469 64.0055 50 64.0055C52.0117 64.0055 53.9844 63.9663 55.9375 63.8683C54.1406 66.3572 52.207 68.7286 50.1562 71.002ZM75.6836 76.8815C75.5078 79.2725 74.3359 81.5067 72.4609 83.0158C69.3555 84.8188 62.7344 82.467 55.5859 76.3132C54.7656 75.6076 53.9453 74.8433 53.1055 74.0594C56.0938 70.7473 58.8477 67.2392 61.3477 63.5547C65.8203 63.1823 70.2734 62.4964 74.668 61.4969C74.8633 62.3004 75.0391 63.1039 75.1953 63.8879C76.1523 68.1211 76.3086 72.5307 75.6836 76.8815ZM79.2383 55.8134C78.6914 55.9898 78.1445 56.1661 77.5781 56.3229C76.2109 52.0505 74.5312 47.8761 72.5977 43.8192C74.4727 39.8212 76.0547 35.7056 77.3828 31.4919C78.3984 31.7859 79.375 32.0995 80.3125 32.4131C89.4141 35.5488 95.8008 40.2132 95.8008 43.7801C95.8008 47.6213 88.9844 52.5797 79.2383 55.8134ZM50 52.8736C54.9414 52.8736 58.9453 48.856 58.9453 43.8976C58.9453 38.9393 54.9414 34.9216 50 34.9216C45.0586 34.9216 41.0547 38.9393 41.0547 43.8976C41.0547 48.856 45.0586 52.8736 50 52.8736Z"/>
</svg>
