<svg width="22" height="22" viewBox="0 0 22 22" fill="current" xmlns="http://www.w3.org/2000/svg">
<path fill="current" d="M10.997 7.33164C8.97722 7.33164 7.32888 8.97997 7.32888 10.9998C7.32888 13.0196 8.97722 14.668 10.997 14.668C13.0169 14.668 14.6652 13.0196 14.6652 10.9998C14.6652 8.97997 13.0169 7.33164 10.997 7.33164ZM21.9988 10.9998C21.9988 9.4808 22.0125 7.97556 21.9272 6.45931C21.8419 4.69815 21.4402 3.13513 20.1523 1.84728C18.8617 0.556684 17.3014 0.157672 15.5403 0.0723655C14.0213 -0.0129406 12.516 0.000818509 10.9998 0.000818509C9.4808 0.000818509 7.97556 -0.0129406 6.45931 0.0723655C4.69815 0.157672 3.13513 0.559435 1.84728 1.84728C0.556684 3.13788 0.157672 4.69815 0.0723655 6.45931C-0.0129406 7.97831 0.000818509 9.48355 0.000818509 10.9998C0.000818509 12.516 -0.0129406 14.024 0.0723655 15.5403C0.157672 17.3014 0.559436 18.8645 1.84728 20.1523C3.13788 21.4429 4.69815 21.8419 6.45931 21.9272C7.97831 22.0125 9.48355 21.9988 10.9998 21.9988C12.5188 21.9988 14.024 22.0125 15.5403 21.9272C17.3014 21.8419 18.8645 21.4402 20.1523 20.1523C21.4429 18.8617 21.8419 17.3014 21.9272 15.5403C22.0153 14.024 21.9988 12.5188 21.9988 10.9998ZM10.997 16.6438C7.87374 16.6438 5.35309 14.1231 5.35309 10.9998C5.35309 7.87649 7.87374 5.35584 10.997 5.35584C14.1203 5.35584 16.641 7.87649 16.641 10.9998C16.641 14.1231 14.1203 16.6438 10.997 16.6438ZM16.8722 6.4428C16.1429 6.4428 15.554 5.85391 15.554 5.12468C15.554 4.39546 16.1429 3.80657 16.8722 3.80657C17.6014 3.80657 18.1903 4.39546 18.1903 5.12468C18.1905 5.29784 18.1565 5.46934 18.0904 5.62936C18.0242 5.78938 17.9271 5.93478 17.8047 6.05722C17.6822 6.17966 17.5369 6.27674 17.3768 6.34291C17.2168 6.40907 17.0453 6.44302 16.8722 6.4428Z" />
</svg>
