<svg width="22" height="22" viewBox="0 0 22 22" xmlns="http://www.w3.org/2000/svg">
<path fill-rule="evenodd" clip-rule="evenodd" d="M0.916748 2.60149C0.916748 2.15465 1.09426 1.7261 1.41022 1.41014C1.72619 1.09417 2.15474 0.916659 2.60158 0.916659H19.3967C19.6182 0.916297 19.8375 0.959616 20.0422 1.04414C20.2469 1.12866 20.4329 1.25272 20.5896 1.40922C20.7462 1.56572 20.8705 1.75158 20.9552 1.95617C21.04 2.16076 21.0835 2.38005 21.0834 2.60149V19.3967C21.0837 19.6181 21.0402 19.8375 20.9556 20.0422C20.871 20.2469 20.7468 20.4329 20.5903 20.5895C20.4337 20.7462 20.2478 20.8704 20.0431 20.9552C19.8385 21.0399 19.6192 21.0834 19.3977 21.0833H2.60158C2.38025 21.0833 2.16109 21.0397 1.95661 20.955C1.75214 20.8703 1.56636 20.7461 1.4099 20.5895C1.25344 20.433 1.12935 20.2471 1.04474 20.0426C0.960119 19.8381 0.916628 19.6189 0.916748 19.3976V2.60149ZM8.89908 8.60566H11.6298V9.97699C12.024 9.18866 13.0323 8.47916 14.5476 8.47916C17.4525 8.47916 18.1409 10.0494 18.1409 12.9305V18.2673H15.2012V13.5868C15.2012 11.946 14.807 11.0202 13.806 11.0202C12.4172 11.0202 11.8397 12.0184 11.8397 13.5868V18.2673H8.89908V8.60566ZM3.85742 18.1417H6.79808V8.47916H3.85742V18.1408V18.1417ZM7.21883 5.32766C7.22438 5.57944 7.17957 5.8298 7.08705 6.06403C6.99453 6.29826 6.85615 6.51166 6.68004 6.69169C6.50393 6.87172 6.29364 7.01476 6.0615 7.11242C5.82936 7.21007 5.58005 7.26038 5.32821 7.26038C5.07636 7.26038 4.82705 7.21007 4.59492 7.11242C4.36278 7.01476 4.15248 6.87172 3.97637 6.69169C3.80026 6.51166 3.66188 6.29826 3.56936 6.06403C3.47684 5.8298 3.43204 5.57944 3.43758 5.32766C3.44846 4.83344 3.65243 4.36313 4.00581 4.01745C4.35919 3.67177 4.83387 3.47821 5.32821 3.47821C5.82254 3.47821 6.29723 3.67177 6.6506 4.01745C7.00398 4.36313 7.20795 4.83344 7.21883 5.32766Z" fill="current"/>
</svg>
