<svg width="30" height="16" viewBox="0 0 30 16" fill="none" xmlns="http://www.w3.org/2000/svg">
<path d="M0.64 16V0.687999H6.338C7.45267 0.687999 8.47933 0.966666 9.418 1.524C10.3713 2.08133 11.1267 2.83667 11.684 3.79C12.2413 4.72867 12.52 5.75533 12.52 6.87V9.818C12.52 10.9327 12.2413 11.9667 11.684 12.92C11.1267 13.8587 10.3713 14.6067 9.418 15.164C8.47933 15.7213 7.45267 16 6.338 16H0.64ZM17.3432 16V0.687999H23.7452C24.8158 0.687999 25.7398 0.885999 26.5172 1.282C27.4118 1.73667 28.1232 2.38933 28.6512 3.24C29.1792 4.076 29.4432 5 29.4432 6.012C29.4432 7.024 29.1792 7.95533 28.6512 8.806C28.1378 9.65667 27.4338 10.3093 26.5392 10.764C25.7765 11.16 24.8452 11.358 23.7452 11.358H21.3472V16H17.3432Z" fill="black"/>
</svg>
